<mxfile host="Electron" agent="Mozilla/5.0 (Windows NT 10.0; Win64; x64) AppleWebKit/537.36 (KHTML, like Gecko) draw.io/24.7.5 Chrome/126.0.6478.183 Electron/31.3.0 Safari/537.36" version="24.7.5">
  <diagram name="Página-1" id="pGCyxjSutPrUHobcgKqH">
    <mxGraphModel dx="4229" dy="2455" grid="1" gridSize="10" guides="1" tooltips="1" connect="1" arrows="1" fold="1" page="1" pageScale="1" pageWidth="827" pageHeight="1169" math="0" shadow="0">
      <root>
        <mxCell id="0" />
        <mxCell id="1" parent="0" />
        <mxCell id="TpXut9PCaNIgbUP--g8M-5" value="" style="endArrow=block;endSize=10;endFill=0;shadow=0;strokeWidth=1;rounded=0;curved=0;edgeStyle=elbowEdgeStyle;elbow=vertical;" parent="1" edge="1">
          <mxGeometry width="160" relative="1" as="geometry">
            <mxPoint x="230" y="460" as="sourcePoint" />
            <mxPoint x="80" y="585" as="targetPoint" />
            <Array as="points">
              <mxPoint x="190" y="585" />
            </Array>
          </mxGeometry>
        </mxCell>
        <mxCell id="TpXut9PCaNIgbUP--g8M-6" value="Estado" style="swimlane;fontStyle=0;align=center;verticalAlign=top;childLayout=stackLayout;horizontal=1;startSize=26;horizontalStack=0;resizeParent=1;resizeLast=0;collapsible=1;marginBottom=0;rounded=0;shadow=0;strokeWidth=1;" parent="1" vertex="1">
          <mxGeometry x="440" y="380" width="210" height="190" as="geometry">
            <mxRectangle x="340" y="380" width="170" height="26" as="alternateBounds" />
          </mxGeometry>
        </mxCell>
        <mxCell id="TpXut9PCaNIgbUP--g8M-7" value="- idEstado : Integer" style="text;align=left;verticalAlign=top;spacingLeft=4;spacingRight=4;overflow=hidden;rotatable=0;points=[[0,0.5],[1,0.5]];portConstraint=eastwest;" parent="TpXut9PCaNIgbUP--g8M-6" vertex="1">
          <mxGeometry y="26" width="210" height="26" as="geometry" />
        </mxCell>
        <mxCell id="TpXut9PCaNIgbUP--g8M-8" value="- nome : String" style="text;align=left;verticalAlign=top;spacingLeft=4;spacingRight=4;overflow=hidden;rotatable=0;points=[[0,0.5],[1,0.5]];portConstraint=eastwest;" parent="TpXut9PCaNIgbUP--g8M-6" vertex="1">
          <mxGeometry y="52" width="210" height="26" as="geometry" />
        </mxCell>
        <mxCell id="TpXut9PCaNIgbUP--g8M-9" value="- UF : String" style="text;align=left;verticalAlign=top;spacingLeft=4;spacingRight=4;overflow=hidden;rotatable=0;points=[[0,0.5],[1,0.5]];portConstraint=eastwest;" parent="TpXut9PCaNIgbUP--g8M-6" vertex="1">
          <mxGeometry y="78" width="210" height="26" as="geometry" />
        </mxCell>
        <mxCell id="TpXut9PCaNIgbUP--g8M-10" value="- cod : Integer" style="text;align=left;verticalAlign=top;spacingLeft=4;spacingRight=4;overflow=hidden;rotatable=0;points=[[0,0.5],[1,0.5]];portConstraint=eastwest;" parent="TpXut9PCaNIgbUP--g8M-6" vertex="1">
          <mxGeometry y="104" width="210" height="26" as="geometry" />
        </mxCell>
        <mxCell id="TpXut9PCaNIgbUP--g8M-207" value="- jdbcTemplate : JdbcTemplate *" style="text;align=left;verticalAlign=top;spacingLeft=4;spacingRight=4;overflow=hidden;rotatable=0;points=[[0,0.5],[1,0.5]];portConstraint=eastwest;" parent="TpXut9PCaNIgbUP--g8M-6" vertex="1">
          <mxGeometry y="130" width="210" height="26" as="geometry" />
        </mxCell>
        <mxCell id="TpXut9PCaNIgbUP--g8M-11" value="" style="line;html=1;strokeWidth=1;align=left;verticalAlign=middle;spacingTop=-1;spacingLeft=3;spacingRight=3;rotatable=0;labelPosition=right;points=[];portConstraint=eastwest;" parent="TpXut9PCaNIgbUP--g8M-6" vertex="1">
          <mxGeometry y="156" width="210" height="8" as="geometry" />
        </mxCell>
        <mxCell id="TpXut9PCaNIgbUP--g8M-208" value="+ save(estado : Estado) : Integer" style="text;align=left;verticalAlign=top;spacingLeft=4;spacingRight=4;overflow=hidden;rotatable=0;points=[[0,0.5],[1,0.5]];portConstraint=eastwest;" parent="TpXut9PCaNIgbUP--g8M-6" vertex="1">
          <mxGeometry y="164" width="210" height="26" as="geometry" />
        </mxCell>
        <mxCell id="TpXut9PCaNIgbUP--g8M-12" value="" style="endArrow=block;endSize=10;endFill=0;shadow=0;strokeWidth=1;rounded=0;curved=0;edgeStyle=elbowEdgeStyle;elbow=vertical;" parent="1" edge="1">
          <mxGeometry width="160" relative="1" as="geometry">
            <mxPoint x="230" y="730" as="sourcePoint" />
            <mxPoint x="80" y="585" as="targetPoint" />
            <Array as="points">
              <mxPoint x="230" y="585" />
            </Array>
          </mxGeometry>
        </mxCell>
        <mxCell id="TpXut9PCaNIgbUP--g8M-15" value="LeitorExcel" style="swimlane;fontStyle=0;align=center;verticalAlign=top;childLayout=stackLayout;horizontal=1;startSize=26;horizontalStack=0;resizeParent=1;resizeLast=0;collapsible=1;marginBottom=0;rounded=0;shadow=0;strokeWidth=1;" parent="1" vertex="1">
          <mxGeometry x="852" y="473" width="348" height="166" as="geometry">
            <mxRectangle x="340" y="380" width="170" height="26" as="alternateBounds" />
          </mxGeometry>
        </mxCell>
        <mxCell id="TpXut9PCaNIgbUP--g8M-16" value="" style="line;html=1;strokeWidth=1;align=left;verticalAlign=middle;spacingTop=-1;spacingLeft=3;spacingRight=3;rotatable=0;labelPosition=right;points=[];portConstraint=eastwest;" parent="TpXut9PCaNIgbUP--g8M-15" vertex="1">
          <mxGeometry y="26" width="348" height="34" as="geometry" />
        </mxCell>
        <mxCell id="TpXut9PCaNIgbUP--g8M-17" value="+ extrairMunicipio(nomeArquivo String, arquivo InputStream) :&#xa; List&lt;Municipio&gt;" style="text;align=left;verticalAlign=top;spacingLeft=4;spacingRight=4;overflow=hidden;rotatable=0;points=[[0,0.5],[1,0.5]];portConstraint=eastwest;" parent="TpXut9PCaNIgbUP--g8M-15" vertex="1">
          <mxGeometry y="60" width="348" height="40" as="geometry" />
        </mxCell>
        <mxCell id="TpXut9PCaNIgbUP--g8M-18" value="+ removerAcentos( str String) : String" style="text;align=left;verticalAlign=top;spacingLeft=4;spacingRight=4;overflow=hidden;rotatable=0;points=[[0,0.5],[1,0.5]];portConstraint=eastwest;fontStyle=4" parent="TpXut9PCaNIgbUP--g8M-15" vertex="1">
          <mxGeometry y="100" width="348" height="26" as="geometry" />
        </mxCell>
        <mxCell id="TpXut9PCaNIgbUP--g8M-165" value="+ extrairDados(nomeArquivo String, arquivo InputStream) :&#xa; List&lt;DadosSUS&gt;" style="text;align=left;verticalAlign=top;spacingLeft=4;spacingRight=4;overflow=hidden;rotatable=0;points=[[0,0.5],[1,0.5]];portConstraint=eastwest;" parent="TpXut9PCaNIgbUP--g8M-15" vertex="1">
          <mxGeometry y="126" width="348" height="40" as="geometry" />
        </mxCell>
        <mxCell id="TpXut9PCaNIgbUP--g8M-34" value="Municipio" style="swimlane;fontStyle=0;align=center;verticalAlign=top;childLayout=stackLayout;horizontal=1;startSize=26;horizontalStack=0;resizeParent=1;resizeLast=0;collapsible=1;marginBottom=0;rounded=0;shadow=0;strokeWidth=1;" parent="1" vertex="1">
          <mxGeometry x="447" y="670" width="233" height="216" as="geometry">
            <mxRectangle x="340" y="380" width="170" height="26" as="alternateBounds" />
          </mxGeometry>
        </mxCell>
        <mxCell id="TpXut9PCaNIgbUP--g8M-35" value="- idMunicipio : Integer" style="text;align=left;verticalAlign=top;spacingLeft=4;spacingRight=4;overflow=hidden;rotatable=0;points=[[0,0.5],[1,0.5]];portConstraint=eastwest;" parent="TpXut9PCaNIgbUP--g8M-34" vertex="1">
          <mxGeometry y="26" width="233" height="26" as="geometry" />
        </mxCell>
        <mxCell id="TpXut9PCaNIgbUP--g8M-36" value="- estado : Estado" style="text;align=left;verticalAlign=top;spacingLeft=4;spacingRight=4;overflow=hidden;rotatable=0;points=[[0,0.5],[1,0.5]];portConstraint=eastwest;" parent="TpXut9PCaNIgbUP--g8M-34" vertex="1">
          <mxGeometry y="52" width="233" height="26" as="geometry" />
        </mxCell>
        <mxCell id="TpXut9PCaNIgbUP--g8M-37" value="- nome : String" style="text;align=left;verticalAlign=top;spacingLeft=4;spacingRight=4;overflow=hidden;rotatable=0;points=[[0,0.5],[1,0.5]];portConstraint=eastwest;" parent="TpXut9PCaNIgbUP--g8M-34" vertex="1">
          <mxGeometry y="78" width="233" height="26" as="geometry" />
        </mxCell>
        <mxCell id="TpXut9PCaNIgbUP--g8M-38" value="- cod : Integer" style="text;align=left;verticalAlign=top;spacingLeft=4;spacingRight=4;overflow=hidden;rotatable=0;points=[[0,0.5],[1,0.5]];portConstraint=eastwest;" parent="TpXut9PCaNIgbUP--g8M-34" vertex="1">
          <mxGeometry y="104" width="233" height="26" as="geometry" />
        </mxCell>
        <mxCell id="TpXut9PCaNIgbUP--g8M-39" value="- qtdPopulacao : Integer" style="text;align=left;verticalAlign=top;spacingLeft=4;spacingRight=4;overflow=hidden;rotatable=0;points=[[0,0.5],[1,0.5]];portConstraint=eastwest;" parent="TpXut9PCaNIgbUP--g8M-34" vertex="1">
          <mxGeometry y="130" width="233" height="26" as="geometry" />
        </mxCell>
        <mxCell id="TpXut9PCaNIgbUP--g8M-24" value="- jdbcTemplate : JdbcTemplate *" style="text;align=left;verticalAlign=top;spacingLeft=4;spacingRight=4;overflow=hidden;rotatable=0;points=[[0,0.5],[1,0.5]];portConstraint=eastwest;" parent="TpXut9PCaNIgbUP--g8M-34" vertex="1">
          <mxGeometry y="156" width="233" height="26" as="geometry" />
        </mxCell>
        <mxCell id="TpXut9PCaNIgbUP--g8M-40" value="" style="line;html=1;strokeWidth=1;align=left;verticalAlign=middle;spacingTop=-1;spacingLeft=3;spacingRight=3;rotatable=0;labelPosition=right;points=[];portConstraint=eastwest;" parent="TpXut9PCaNIgbUP--g8M-34" vertex="1">
          <mxGeometry y="182" width="233" height="8" as="geometry" />
        </mxCell>
        <mxCell id="TpXut9PCaNIgbUP--g8M-26" value="+ save(municipio : Municipio) : Integer" style="text;align=left;verticalAlign=top;spacingLeft=4;spacingRight=4;overflow=hidden;rotatable=0;points=[[0,0.5],[1,0.5]];portConstraint=eastwest;" parent="TpXut9PCaNIgbUP--g8M-34" vertex="1">
          <mxGeometry y="190" width="233" height="26" as="geometry" />
        </mxCell>
        <mxCell id="TpXut9PCaNIgbUP--g8M-41" value="Log" style="swimlane;fontStyle=0;align=center;verticalAlign=top;childLayout=stackLayout;horizontal=1;startSize=26;horizontalStack=0;resizeParent=1;resizeLast=0;collapsible=1;marginBottom=0;rounded=0;shadow=0;strokeWidth=1;" parent="1" vertex="1">
          <mxGeometry x="443.5" y="110" width="203" height="218" as="geometry">
            <mxRectangle x="220" y="120" width="160" height="26" as="alternateBounds" />
          </mxGeometry>
        </mxCell>
        <mxCell id="TpXut9PCaNIgbUP--g8M-42" value="- idLog : Integer" style="text;align=left;verticalAlign=top;spacingLeft=4;spacingRight=4;overflow=hidden;rotatable=0;points=[[0,0.5],[1,0.5]];portConstraint=eastwest;" parent="TpXut9PCaNIgbUP--g8M-41" vertex="1">
          <mxGeometry y="26" width="203" height="26" as="geometry" />
        </mxCell>
        <mxCell id="TpXut9PCaNIgbUP--g8M-43" value="- titulo : String" style="text;align=left;verticalAlign=top;spacingLeft=4;spacingRight=4;overflow=hidden;rotatable=0;points=[[0,0.5],[1,0.5]];portConstraint=eastwest;rounded=0;shadow=0;html=0;" parent="TpXut9PCaNIgbUP--g8M-41" vertex="1">
          <mxGeometry y="52" width="203" height="26" as="geometry" />
        </mxCell>
        <mxCell id="TpXut9PCaNIgbUP--g8M-44" value="- descricao : String" style="text;align=left;verticalAlign=top;spacingLeft=4;spacingRight=4;overflow=hidden;rotatable=0;points=[[0,0.5],[1,0.5]];portConstraint=eastwest;rounded=0;shadow=0;html=0;" parent="TpXut9PCaNIgbUP--g8M-41" vertex="1">
          <mxGeometry y="78" width="203" height="26" as="geometry" />
        </mxCell>
        <mxCell id="TpXut9PCaNIgbUP--g8M-45" value="- dtLog LocalDateTime" style="text;align=left;verticalAlign=top;spacingLeft=4;spacingRight=4;overflow=hidden;rotatable=0;points=[[0,0.5],[1,0.5]];portConstraint=eastwest;rounded=0;shadow=0;html=0;" parent="TpXut9PCaNIgbUP--g8M-41" vertex="1">
          <mxGeometry y="104" width="203" height="26" as="geometry" />
        </mxCell>
        <mxCell id="TpXut9PCaNIgbUP--g8M-20" value="- jdbcTemplate : JdbcTemplate *" style="text;align=left;verticalAlign=top;spacingLeft=4;spacingRight=4;overflow=hidden;rotatable=0;points=[[0,0.5],[1,0.5]];portConstraint=eastwest;" parent="TpXut9PCaNIgbUP--g8M-41" vertex="1">
          <mxGeometry y="130" width="203" height="26" as="geometry" />
        </mxCell>
        <mxCell id="TpXut9PCaNIgbUP--g8M-46" value="- tipo : String" style="text;align=left;verticalAlign=top;spacingLeft=4;spacingRight=4;overflow=hidden;rotatable=0;points=[[0,0.5],[1,0.5]];portConstraint=eastwest;rounded=0;shadow=0;html=0;" parent="TpXut9PCaNIgbUP--g8M-41" vertex="1">
          <mxGeometry y="156" width="203" height="26" as="geometry" />
        </mxCell>
        <mxCell id="TpXut9PCaNIgbUP--g8M-47" value="" style="line;html=1;strokeWidth=1;align=left;verticalAlign=middle;spacingTop=-1;spacingLeft=3;spacingRight=3;rotatable=0;labelPosition=right;points=[];portConstraint=eastwest;" parent="TpXut9PCaNIgbUP--g8M-41" vertex="1">
          <mxGeometry y="182" width="203" height="10" as="geometry" />
        </mxCell>
        <mxCell id="TpXut9PCaNIgbUP--g8M-22" value="+ save(log : Log) : void" style="text;align=left;verticalAlign=top;spacingLeft=4;spacingRight=4;overflow=hidden;rotatable=0;points=[[0,0.5],[1,0.5]];portConstraint=eastwest;" parent="TpXut9PCaNIgbUP--g8M-41" vertex="1">
          <mxGeometry y="192" width="203" height="26" as="geometry" />
        </mxCell>
        <mxCell id="TpXut9PCaNIgbUP--g8M-48" value="" style="endArrow=none;html=1;rounded=0;exitX=1;exitY=0.5;exitDx=0;exitDy=0;entryX=1;entryY=0.5;entryDx=0;entryDy=0;" parent="1" edge="1">
          <mxGeometry width="50" height="50" relative="1" as="geometry">
            <mxPoint x="680" y="760.0000000000005" as="sourcePoint" />
            <mxPoint x="650" y="470.00000000000045" as="targetPoint" />
            <Array as="points">
              <mxPoint x="800" y="759" />
              <mxPoint x="800" y="469" />
            </Array>
          </mxGeometry>
        </mxCell>
        <mxCell id="TpXut9PCaNIgbUP--g8M-49" value="1..*" style="edgeLabel;html=1;align=center;verticalAlign=middle;resizable=0;points=[];" parent="TpXut9PCaNIgbUP--g8M-48" vertex="1" connectable="0">
          <mxGeometry x="-0.9113" y="-1" relative="1" as="geometry">
            <mxPoint x="-9" y="-11" as="offset" />
          </mxGeometry>
        </mxCell>
        <mxCell id="TpXut9PCaNIgbUP--g8M-50" value="1..1" style="edgeLabel;html=1;align=center;verticalAlign=middle;resizable=0;points=[];" parent="TpXut9PCaNIgbUP--g8M-48" vertex="1" connectable="0">
          <mxGeometry x="0.9199" y="-1" relative="1" as="geometry">
            <mxPoint x="-8" y="-13" as="offset" />
          </mxGeometry>
        </mxCell>
        <mxCell id="TpXut9PCaNIgbUP--g8M-55" value="" style="endArrow=open;shadow=0;strokeWidth=1;rounded=0;curved=0;endFill=1;edgeStyle=elbowEdgeStyle;elbow=vertical;entryX=1.02;entryY=0.915;entryDx=0;entryDy=0;entryPerimeter=0;" parent="1" edge="1">
          <mxGeometry x="0.5" y="41" relative="1" as="geometry">
            <mxPoint x="1026" y="472" as="sourcePoint" />
            <mxPoint x="650.2000000000003" y="429.78999999999996" as="targetPoint" />
            <mxPoint x="-40" y="32" as="offset" />
            <Array as="points">
              <mxPoint x="1016" y="430" />
            </Array>
          </mxGeometry>
        </mxCell>
        <mxCell id="TpXut9PCaNIgbUP--g8M-56" value="1..*" style="edgeLabel;html=1;align=center;verticalAlign=middle;resizable=0;points=[];" parent="TpXut9PCaNIgbUP--g8M-55" vertex="1" connectable="0">
          <mxGeometry x="0.8547" relative="1" as="geometry">
            <mxPoint x="-15" y="-10" as="offset" />
          </mxGeometry>
        </mxCell>
        <mxCell id="ZU8Cx3COqx6KzPjUD9Aj-15" value="1..1" style="edgeLabel;html=1;align=center;verticalAlign=middle;resizable=0;points=[];" vertex="1" connectable="0" parent="TpXut9PCaNIgbUP--g8M-55">
          <mxGeometry x="-0.9378" y="-2" relative="1" as="geometry">
            <mxPoint x="10" y="2" as="offset" />
          </mxGeometry>
        </mxCell>
        <mxCell id="TpXut9PCaNIgbUP--g8M-57" value="" style="endArrow=open;shadow=0;strokeWidth=1;rounded=0;curved=0;endFill=1;edgeStyle=elbowEdgeStyle;elbow=vertical;exitX=0.542;exitY=1.006;exitDx=0;exitDy=0;exitPerimeter=0;" parent="1" source="TpXut9PCaNIgbUP--g8M-165" edge="1">
          <mxGeometry x="0.5" y="41" relative="1" as="geometry">
            <mxPoint x="1040" y="613" as="sourcePoint" />
            <mxPoint x="680" y="804" as="targetPoint" />
            <mxPoint x="-40" y="32" as="offset" />
            <Array as="points">
              <mxPoint x="840" y="804" />
            </Array>
          </mxGeometry>
        </mxCell>
        <mxCell id="TpXut9PCaNIgbUP--g8M-58" value="1..*" style="edgeLabel;html=1;align=center;verticalAlign=middle;resizable=0;points=[];" parent="TpXut9PCaNIgbUP--g8M-57" vertex="1" connectable="0">
          <mxGeometry x="0.9235" relative="1" as="geometry">
            <mxPoint x="-5" y="-13" as="offset" />
          </mxGeometry>
        </mxCell>
        <mxCell id="ZU8Cx3COqx6KzPjUD9Aj-14" value="1..1" style="edgeLabel;html=1;align=center;verticalAlign=middle;resizable=0;points=[];" vertex="1" connectable="0" parent="TpXut9PCaNIgbUP--g8M-57">
          <mxGeometry x="-0.9597" relative="1" as="geometry">
            <mxPoint x="12" y="-2" as="offset" />
          </mxGeometry>
        </mxCell>
        <mxCell id="TpXut9PCaNIgbUP--g8M-59" value="Dao" style="swimlane;fontStyle=0;align=center;verticalAlign=top;childLayout=stackLayout;horizontal=1;startSize=26;horizontalStack=0;resizeParent=1;resizeLast=0;collapsible=1;marginBottom=0;rounded=0;shadow=0;strokeWidth=1;" parent="1" vertex="1">
          <mxGeometry x="-200" y="530" width="280" height="110" as="geometry">
            <mxRectangle x="130" y="380" width="160" height="26" as="alternateBounds" />
          </mxGeometry>
        </mxCell>
        <mxCell id="TpXut9PCaNIgbUP--g8M-60" value="" style="line;html=1;strokeWidth=1;align=left;verticalAlign=middle;spacingTop=-1;spacingLeft=3;spacingRight=3;rotatable=0;labelPosition=right;points=[];portConstraint=eastwest;" parent="TpXut9PCaNIgbUP--g8M-59" vertex="1">
          <mxGeometry y="26" width="280" height="24" as="geometry" />
        </mxCell>
        <mxCell id="TpXut9PCaNIgbUP--g8M-61" value="+ findAll() : List&lt;E&gt;" style="text;align=left;verticalAlign=top;spacingLeft=4;spacingRight=4;overflow=hidden;rotatable=0;points=[[0,0.5],[1,0.5]];portConstraint=eastwest;" parent="TpXut9PCaNIgbUP--g8M-59" vertex="1">
          <mxGeometry y="50" width="280" height="26" as="geometry" />
        </mxCell>
        <mxCell id="TpXut9PCaNIgbUP--g8M-62" value="+ findByNomeLike(nome : String) : List&lt;E&gt;" style="text;align=left;verticalAlign=top;spacingLeft=4;spacingRight=4;overflow=hidden;rotatable=0;points=[[0,0.5],[1,0.5]];portConstraint=eastwest;" parent="TpXut9PCaNIgbUP--g8M-59" vertex="1">
          <mxGeometry y="76" width="280" height="26" as="geometry" />
        </mxCell>
        <mxCell id="TpXut9PCaNIgbUP--g8M-65" value="" style="rhombus;whiteSpace=wrap;html=1;rotation=-90;fillColor=#0F0F0F;" parent="1" vertex="1">
          <mxGeometry x="656" y="460" width="10" height="20" as="geometry" />
        </mxCell>
        <mxCell id="TpXut9PCaNIgbUP--g8M-136" value="DadosSUS" style="swimlane;fontStyle=0;align=center;verticalAlign=top;childLayout=stackLayout;horizontal=1;startSize=26;horizontalStack=0;resizeParent=1;resizeLast=0;collapsible=1;marginBottom=0;rounded=0;shadow=0;strokeWidth=1;" parent="1" vertex="1">
          <mxGeometry x="1390" y="360" width="220" height="348" as="geometry">
            <mxRectangle x="220" y="120" width="160" height="26" as="alternateBounds" />
          </mxGeometry>
        </mxCell>
        <mxCell id="TpXut9PCaNIgbUP--g8M-137" value="- idEstoque : Integer" style="text;align=left;verticalAlign=top;spacingLeft=4;spacingRight=4;overflow=hidden;rotatable=0;points=[[0,0.5],[1,0.5]];portConstraint=eastwest;" parent="TpXut9PCaNIgbUP--g8M-136" vertex="1">
          <mxGeometry y="26" width="220" height="26" as="geometry" />
        </mxCell>
        <mxCell id="TpXut9PCaNIgbUP--g8M-138" value="- nomeFarmaco : String" style="text;align=left;verticalAlign=top;spacingLeft=4;spacingRight=4;overflow=hidden;rotatable=0;points=[[0,0.5],[1,0.5]];portConstraint=eastwest;rounded=0;shadow=0;html=0;" parent="TpXut9PCaNIgbUP--g8M-136" vertex="1">
          <mxGeometry y="52" width="220" height="26" as="geometry" />
        </mxCell>
        <mxCell id="TpXut9PCaNIgbUP--g8M-139" value="- qtdFarmaco : Integer" style="text;align=left;verticalAlign=top;spacingLeft=4;spacingRight=4;overflow=hidden;rotatable=0;points=[[0,0.5],[1,0.5]];portConstraint=eastwest;rounded=0;shadow=0;html=0;" parent="TpXut9PCaNIgbUP--g8M-136" vertex="1">
          <mxGeometry y="78" width="220" height="26" as="geometry" />
        </mxCell>
        <mxCell id="TpXut9PCaNIgbUP--g8M-140" value="- dtValidade : String" style="text;align=left;verticalAlign=top;spacingLeft=4;spacingRight=4;overflow=hidden;rotatable=0;points=[[0,0.5],[1,0.5]];portConstraint=eastwest;rounded=0;shadow=0;html=0;" parent="TpXut9PCaNIgbUP--g8M-136" vertex="1">
          <mxGeometry y="104" width="220" height="26" as="geometry" />
        </mxCell>
        <mxCell id="TpXut9PCaNIgbUP--g8M-141" value="- dtEntrada : String" style="text;align=left;verticalAlign=top;spacingLeft=4;spacingRight=4;overflow=hidden;rotatable=0;points=[[0,0.5],[1,0.5]];portConstraint=eastwest;rounded=0;shadow=0;html=0;" parent="TpXut9PCaNIgbUP--g8M-136" vertex="1">
          <mxGeometry y="130" width="220" height="26" as="geometry" />
        </mxCell>
        <mxCell id="TpXut9PCaNIgbUP--g8M-142" value="- lote : String" style="text;align=left;verticalAlign=top;spacingLeft=4;spacingRight=4;overflow=hidden;rotatable=0;points=[[0,0.5],[1,0.5]];portConstraint=eastwest;rounded=0;shadow=0;html=0;" parent="TpXut9PCaNIgbUP--g8M-136" vertex="1">
          <mxGeometry y="156" width="220" height="26" as="geometry" />
        </mxCell>
        <mxCell id="TpXut9PCaNIgbUP--g8M-143" value="- catmat : String" style="text;align=left;verticalAlign=top;spacingLeft=4;spacingRight=4;overflow=hidden;rotatable=0;points=[[0,0.5],[1,0.5]];portConstraint=eastwest;rounded=0;shadow=0;html=0;" parent="TpXut9PCaNIgbUP--g8M-136" vertex="1">
          <mxGeometry y="182" width="220" height="26" as="geometry" />
        </mxCell>
        <mxCell id="TpXut9PCaNIgbUP--g8M-144" value="- estado : String" style="text;align=left;verticalAlign=top;spacingLeft=4;spacingRight=4;overflow=hidden;rotatable=0;points=[[0,0.5],[1,0.5]];portConstraint=eastwest;rounded=0;shadow=0;html=0;" parent="TpXut9PCaNIgbUP--g8M-136" vertex="1">
          <mxGeometry y="208" width="220" height="26" as="geometry" />
        </mxCell>
        <mxCell id="TpXut9PCaNIgbUP--g8M-145" value="- municipio : String" style="text;align=left;verticalAlign=top;spacingLeft=4;spacingRight=4;overflow=hidden;rotatable=0;points=[[0,0.5],[1,0.5]];portConstraint=eastwest;rounded=0;shadow=0;html=0;" parent="TpXut9PCaNIgbUP--g8M-136" vertex="1">
          <mxGeometry y="234" width="220" height="26" as="geometry" />
        </mxCell>
        <mxCell id="TpXut9PCaNIgbUP--g8M-157" value="- jdbcTemplate : JdbcTemplate" style="text;align=left;verticalAlign=top;spacingLeft=4;spacingRight=4;overflow=hidden;rotatable=0;points=[[0,0.5],[1,0.5]];portConstraint=eastwest;" parent="TpXut9PCaNIgbUP--g8M-136" vertex="1">
          <mxGeometry y="260" width="220" height="26" as="geometry" />
        </mxCell>
        <mxCell id="TpXut9PCaNIgbUP--g8M-146" value="" style="line;html=1;strokeWidth=1;align=left;verticalAlign=middle;spacingTop=-1;spacingLeft=3;spacingRight=3;rotatable=0;labelPosition=right;points=[];portConstraint=eastwest;" parent="TpXut9PCaNIgbUP--g8M-136" vertex="1">
          <mxGeometry y="286" width="220" height="10" as="geometry" />
        </mxCell>
        <mxCell id="TpXut9PCaNIgbUP--g8M-159" value="+ pegarMunicipios() : List&lt;Municipio&gt;" style="text;align=left;verticalAlign=top;spacingLeft=4;spacingRight=4;overflow=hidden;rotatable=0;points=[[0,0.5],[1,0.5]];portConstraint=eastwest;" parent="TpXut9PCaNIgbUP--g8M-136" vertex="1">
          <mxGeometry y="296" width="220" height="26" as="geometry" />
        </mxCell>
        <mxCell id="TpXut9PCaNIgbUP--g8M-160" value="+ save(estoque DadosSUS) : void" style="text;align=left;verticalAlign=top;spacingLeft=4;spacingRight=4;overflow=hidden;rotatable=0;points=[[0,0.5],[1,0.5]];portConstraint=eastwest;" parent="TpXut9PCaNIgbUP--g8M-136" vertex="1">
          <mxGeometry y="322" width="220" height="26" as="geometry" />
        </mxCell>
        <mxCell id="TpXut9PCaNIgbUP--g8M-203" value="Slack" style="swimlane;fontStyle=0;align=center;verticalAlign=top;childLayout=stackLayout;horizontal=1;startSize=26;horizontalStack=0;resizeParent=1;resizeLast=0;collapsible=1;marginBottom=0;rounded=0;shadow=0;strokeWidth=1;" parent="1" vertex="1">
          <mxGeometry x="1360" y="178" width="268" height="90" as="geometry">
            <mxRectangle x="340" y="380" width="170" height="26" as="alternateBounds" />
          </mxGeometry>
        </mxCell>
        <mxCell id="TpXut9PCaNIgbUP--g8M-204" value="" style="line;html=1;strokeWidth=1;align=left;verticalAlign=middle;spacingTop=-1;spacingLeft=3;spacingRight=3;rotatable=0;labelPosition=right;points=[];portConstraint=eastwest;" parent="TpXut9PCaNIgbUP--g8M-203" vertex="1">
          <mxGeometry y="26" width="268" height="34" as="geometry" />
        </mxCell>
        <mxCell id="TpXut9PCaNIgbUP--g8M-205" value="+ enviarMensagem(content JSONObject) : void" style="text;align=left;verticalAlign=top;spacingLeft=4;spacingRight=4;overflow=hidden;rotatable=0;points=[[0,0.5],[1,0.5]];portConstraint=eastwest;" parent="TpXut9PCaNIgbUP--g8M-203" vertex="1">
          <mxGeometry y="60" width="268" height="30" as="geometry" />
        </mxCell>
        <mxCell id="TpXut9PCaNIgbUP--g8M-209" value="" style="endArrow=none;html=1;rounded=0;entryX=0;entryY=0.5;entryDx=0;entryDy=0;" parent="1" edge="1">
          <mxGeometry width="50" height="50" relative="1" as="geometry">
            <mxPoint x="230" y="460" as="sourcePoint" />
            <mxPoint x="440" y="460" as="targetPoint" />
          </mxGeometry>
        </mxCell>
        <mxCell id="TpXut9PCaNIgbUP--g8M-210" value="" style="endArrow=none;html=1;rounded=0;entryX=0;entryY=0.5;entryDx=0;entryDy=0;" parent="1" edge="1">
          <mxGeometry width="50" height="50" relative="1" as="geometry">
            <mxPoint x="230" y="730" as="sourcePoint" />
            <mxPoint x="447" y="730" as="targetPoint" />
          </mxGeometry>
        </mxCell>
        <mxCell id="TpXut9PCaNIgbUP--g8M-214" value="" style="endArrow=none;html=1;rounded=0;entryX=0;entryY=0.5;entryDx=0;entryDy=0;exitX=1;exitY=0.5;exitDx=0;exitDy=0;" parent="1" source="TpXut9PCaNIgbUP--g8M-17" target="TpXut9PCaNIgbUP--g8M-143" edge="1">
          <mxGeometry width="50" height="50" relative="1" as="geometry">
            <mxPoint x="880" y="490" as="sourcePoint" />
            <mxPoint x="930" y="440" as="targetPoint" />
          </mxGeometry>
        </mxCell>
        <mxCell id="ZU8Cx3COqx6KzPjUD9Aj-20" value="1..1" style="edgeLabel;html=1;align=center;verticalAlign=middle;resizable=0;points=[];" vertex="1" connectable="0" parent="TpXut9PCaNIgbUP--g8M-214">
          <mxGeometry x="-0.8809" y="2" relative="1" as="geometry">
            <mxPoint x="1" y="-8" as="offset" />
          </mxGeometry>
        </mxCell>
        <mxCell id="ZU8Cx3COqx6KzPjUD9Aj-21" value="1..*" style="edgeLabel;html=1;align=center;verticalAlign=middle;resizable=0;points=[];" vertex="1" connectable="0" parent="TpXut9PCaNIgbUP--g8M-214">
          <mxGeometry x="0.6771" y="1" relative="1" as="geometry">
            <mxPoint x="18" y="-14" as="offset" />
          </mxGeometry>
        </mxCell>
        <mxCell id="TpXut9PCaNIgbUP--g8M-216" value="" style="endArrow=none;html=1;rounded=0;exitX=0.44;exitY=1.214;exitDx=0;exitDy=0;exitPerimeter=0;entryX=0.465;entryY=1.154;entryDx=0;entryDy=0;entryPerimeter=0;" parent="1" edge="1">
          <mxGeometry width="50" height="50" relative="1" as="geometry">
            <mxPoint x="549.5200000000004" y="886.5639999999999" as="sourcePoint" />
            <mxPoint x="1492.3000000000002" y="707.0040000000004" as="targetPoint" />
            <Array as="points">
              <mxPoint x="550" y="985" />
              <mxPoint x="1492" y="985" />
            </Array>
          </mxGeometry>
        </mxCell>
        <mxCell id="ZU8Cx3COqx6KzPjUD9Aj-12" value="1..*" style="edgeLabel;html=1;align=center;verticalAlign=middle;resizable=0;points=[];" vertex="1" connectable="0" parent="TpXut9PCaNIgbUP--g8M-216">
          <mxGeometry x="-0.9875" y="1" relative="1" as="geometry">
            <mxPoint x="11" as="offset" />
          </mxGeometry>
        </mxCell>
        <mxCell id="ZU8Cx3COqx6KzPjUD9Aj-13" value="1..*" style="edgeLabel;html=1;align=center;verticalAlign=middle;resizable=0;points=[];" vertex="1" connectable="0" parent="TpXut9PCaNIgbUP--g8M-216">
          <mxGeometry x="0.9793" y="-2" relative="1" as="geometry">
            <mxPoint x="9" y="-2" as="offset" />
          </mxGeometry>
        </mxCell>
        <mxCell id="TpXut9PCaNIgbUP--g8M-217" value="Usuario" style="swimlane;fontStyle=0;align=center;verticalAlign=top;childLayout=stackLayout;horizontal=1;startSize=26;horizontalStack=0;resizeParent=1;resizeLast=0;collapsible=1;marginBottom=0;rounded=0;shadow=0;strokeWidth=1;" parent="1" vertex="1">
          <mxGeometry x="-4" y="760" width="220" height="374" as="geometry">
            <mxRectangle x="220" y="120" width="160" height="26" as="alternateBounds" />
          </mxGeometry>
        </mxCell>
        <mxCell id="TpXut9PCaNIgbUP--g8M-218" value="- idUsuario : Integer" style="text;align=left;verticalAlign=top;spacingLeft=4;spacingRight=4;overflow=hidden;rotatable=0;points=[[0,0.5],[1,0.5]];portConstraint=eastwest;" parent="TpXut9PCaNIgbUP--g8M-217" vertex="1">
          <mxGeometry y="26" width="220" height="26" as="geometry" />
        </mxCell>
        <mxCell id="TpXut9PCaNIgbUP--g8M-219" value="- nome : String" style="text;align=left;verticalAlign=top;spacingLeft=4;spacingRight=4;overflow=hidden;rotatable=0;points=[[0,0.5],[1,0.5]];portConstraint=eastwest;rounded=0;shadow=0;html=0;" parent="TpXut9PCaNIgbUP--g8M-217" vertex="1">
          <mxGeometry y="52" width="220" height="26" as="geometry" />
        </mxCell>
        <mxCell id="TpXut9PCaNIgbUP--g8M-220" value="- cpf : String" style="text;align=left;verticalAlign=top;spacingLeft=4;spacingRight=4;overflow=hidden;rotatable=0;points=[[0,0.5],[1,0.5]];portConstraint=eastwest;rounded=0;shadow=0;html=0;" parent="TpXut9PCaNIgbUP--g8M-217" vertex="1">
          <mxGeometry y="78" width="220" height="26" as="geometry" />
        </mxCell>
        <mxCell id="TpXut9PCaNIgbUP--g8M-221" value="- email : String" style="text;align=left;verticalAlign=top;spacingLeft=4;spacingRight=4;overflow=hidden;rotatable=0;points=[[0,0.5],[1,0.5]];portConstraint=eastwest;rounded=0;shadow=0;html=0;" parent="TpXut9PCaNIgbUP--g8M-217" vertex="1">
          <mxGeometry y="104" width="220" height="26" as="geometry" />
        </mxCell>
        <mxCell id="TpXut9PCaNIgbUP--g8M-222" value="- senha : String" style="text;align=left;verticalAlign=top;spacingLeft=4;spacingRight=4;overflow=hidden;rotatable=0;points=[[0,0.5],[1,0.5]];portConstraint=eastwest;rounded=0;shadow=0;html=0;" parent="TpXut9PCaNIgbUP--g8M-217" vertex="1">
          <mxGeometry y="130" width="220" height="26" as="geometry" />
        </mxCell>
        <mxCell id="TpXut9PCaNIgbUP--g8M-223" value="- cargo : String" style="text;align=left;verticalAlign=top;spacingLeft=4;spacingRight=4;overflow=hidden;rotatable=0;points=[[0,0.5],[1,0.5]];portConstraint=eastwest;rounded=0;shadow=0;html=0;" parent="TpXut9PCaNIgbUP--g8M-217" vertex="1">
          <mxGeometry y="156" width="220" height="26" as="geometry" />
        </mxCell>
        <mxCell id="TpXut9PCaNIgbUP--g8M-224" value="- dtNasc : Date" style="text;align=left;verticalAlign=top;spacingLeft=4;spacingRight=4;overflow=hidden;rotatable=0;points=[[0,0.5],[1,0.5]];portConstraint=eastwest;rounded=0;shadow=0;html=0;" parent="TpXut9PCaNIgbUP--g8M-217" vertex="1">
          <mxGeometry y="182" width="220" height="26" as="geometry" />
        </mxCell>
        <mxCell id="TpXut9PCaNIgbUP--g8M-228" value="" style="line;html=1;strokeWidth=1;align=left;verticalAlign=middle;spacingTop=-1;spacingLeft=3;spacingRight=3;rotatable=0;labelPosition=right;points=[];portConstraint=eastwest;" parent="TpXut9PCaNIgbUP--g8M-217" vertex="1">
          <mxGeometry y="208" width="220" height="10" as="geometry" />
        </mxCell>
        <mxCell id="TpXut9PCaNIgbUP--g8M-229" value="+ fazerCadastro() : void" style="text;align=left;verticalAlign=top;spacingLeft=4;spacingRight=4;overflow=hidden;rotatable=0;points=[[0,0.5],[1,0.5]];portConstraint=eastwest;" parent="TpXut9PCaNIgbUP--g8M-217" vertex="1">
          <mxGeometry y="218" width="220" height="26" as="geometry" />
        </mxCell>
        <mxCell id="TpXut9PCaNIgbUP--g8M-230" value="+ verDashboard() : void" style="text;align=left;verticalAlign=top;spacingLeft=4;spacingRight=4;overflow=hidden;rotatable=0;points=[[0,0.5],[1,0.5]];portConstraint=eastwest;" parent="TpXut9PCaNIgbUP--g8M-217" vertex="1">
          <mxGeometry y="244" width="220" height="26" as="geometry" />
        </mxCell>
        <mxCell id="TpXut9PCaNIgbUP--g8M-231" value="+ editarInformacoes() : void" style="text;align=left;verticalAlign=top;spacingLeft=4;spacingRight=4;overflow=hidden;rotatable=0;points=[[0,0.5],[1,0.5]];portConstraint=eastwest;" parent="TpXut9PCaNIgbUP--g8M-217" vertex="1">
          <mxGeometry y="270" width="220" height="26" as="geometry" />
        </mxCell>
        <mxCell id="TpXut9PCaNIgbUP--g8M-232" value="+ adicionarParametro() : void" style="text;align=left;verticalAlign=top;spacingLeft=4;spacingRight=4;overflow=hidden;rotatable=0;points=[[0,0.5],[1,0.5]];portConstraint=eastwest;" parent="TpXut9PCaNIgbUP--g8M-217" vertex="1">
          <mxGeometry y="296" width="220" height="26" as="geometry" />
        </mxCell>
        <mxCell id="TpXut9PCaNIgbUP--g8M-233" value="+ adicionarContato() : void" style="text;align=left;verticalAlign=top;spacingLeft=4;spacingRight=4;overflow=hidden;rotatable=0;points=[[0,0.5],[1,0.5]];portConstraint=eastwest;" parent="TpXut9PCaNIgbUP--g8M-217" vertex="1">
          <mxGeometry y="322" width="220" height="26" as="geometry" />
        </mxCell>
        <mxCell id="TpXut9PCaNIgbUP--g8M-234" value="+ removerUsuario() : void" style="text;align=left;verticalAlign=top;spacingLeft=4;spacingRight=4;overflow=hidden;rotatable=0;points=[[0,0.5],[1,0.5]];portConstraint=eastwest;" parent="TpXut9PCaNIgbUP--g8M-217" vertex="1">
          <mxGeometry y="348" width="220" height="26" as="geometry" />
        </mxCell>
        <mxCell id="TpXut9PCaNIgbUP--g8M-235" value="" style="endArrow=block;endSize=10;endFill=0;shadow=0;strokeWidth=1;rounded=0;curved=0;edgeStyle=elbowEdgeStyle;elbow=vertical;" parent="1" edge="1">
          <mxGeometry width="160" relative="1" as="geometry">
            <mxPoint x="-1097" y="-30" as="sourcePoint" />
            <mxPoint x="-1250" y="39.329999999999984" as="targetPoint" />
            <Array as="points">
              <mxPoint x="-1140" y="39.329999999999984" />
            </Array>
          </mxGeometry>
        </mxCell>
        <mxCell id="TpXut9PCaNIgbUP--g8M-236" value="" style="endArrow=block;endSize=10;endFill=0;shadow=0;strokeWidth=1;rounded=0;curved=0;edgeStyle=elbowEdgeStyle;elbow=vertical;" parent="1" edge="1">
          <mxGeometry width="160" relative="1" as="geometry">
            <mxPoint x="-1097" y="130" as="sourcePoint" />
            <mxPoint x="-1247" y="38.329999999999984" as="targetPoint" />
            <Array as="points">
              <mxPoint x="-1097" y="38.329999999999984" />
            </Array>
          </mxGeometry>
        </mxCell>
        <mxCell id="TpXut9PCaNIgbUP--g8M-237" value="" style="endArrow=none;html=1;rounded=0;" parent="1" edge="1">
          <mxGeometry width="50" height="50" relative="1" as="geometry">
            <mxPoint x="-1097" y="-30" as="sourcePoint" />
            <mxPoint x="-980" y="-30" as="targetPoint" />
          </mxGeometry>
        </mxCell>
        <mxCell id="TpXut9PCaNIgbUP--g8M-238" value="" style="endArrow=none;html=1;rounded=0;" parent="1" edge="1">
          <mxGeometry width="50" height="50" relative="1" as="geometry">
            <mxPoint x="-1097" y="130" as="sourcePoint" />
            <mxPoint x="-980" y="130" as="targetPoint" />
          </mxGeometry>
        </mxCell>
        <mxCell id="TpXut9PCaNIgbUP--g8M-239" value="CoordenadorEstadual" style="swimlane;fontStyle=0;align=center;verticalAlign=top;childLayout=stackLayout;horizontal=1;startSize=26;horizontalStack=0;resizeParent=1;resizeLast=0;collapsible=1;marginBottom=0;rounded=0;shadow=0;strokeWidth=1;" parent="1" vertex="1">
          <mxGeometry x="-980" y="-60" width="210" height="70" as="geometry">
            <mxRectangle x="340" y="380" width="170" height="26" as="alternateBounds" />
          </mxGeometry>
        </mxCell>
        <mxCell id="TpXut9PCaNIgbUP--g8M-245" value="" style="line;html=1;strokeWidth=1;align=left;verticalAlign=middle;spacingTop=-1;spacingLeft=3;spacingRight=3;rotatable=0;labelPosition=right;points=[];portConstraint=eastwest;" parent="TpXut9PCaNIgbUP--g8M-239" vertex="1">
          <mxGeometry y="26" width="210" height="24" as="geometry" />
        </mxCell>
        <mxCell id="TpXut9PCaNIgbUP--g8M-247" value="CoordenadorMunicipal" style="swimlane;fontStyle=0;align=center;verticalAlign=top;childLayout=stackLayout;horizontal=1;startSize=26;horizontalStack=0;resizeParent=1;resizeLast=0;collapsible=1;marginBottom=0;rounded=0;shadow=0;strokeWidth=1;" parent="1" vertex="1">
          <mxGeometry x="-980" y="100" width="210" height="70" as="geometry">
            <mxRectangle x="340" y="380" width="170" height="26" as="alternateBounds" />
          </mxGeometry>
        </mxCell>
        <mxCell id="TpXut9PCaNIgbUP--g8M-248" value="" style="line;html=1;strokeWidth=1;align=left;verticalAlign=middle;spacingTop=-1;spacingLeft=3;spacingRight=3;rotatable=0;labelPosition=right;points=[];portConstraint=eastwest;" parent="TpXut9PCaNIgbUP--g8M-247" vertex="1">
          <mxGeometry y="26" width="210" height="24" as="geometry" />
        </mxCell>
        <mxCell id="ZU8Cx3COqx6KzPjUD9Aj-1" value="" style="endArrow=none;html=1;rounded=0;entryX=0;entryY=0.5;entryDx=0;entryDy=0;exitX=0.995;exitY=0.111;exitDx=0;exitDy=0;exitPerimeter=0;" edge="1" parent="1" source="TpXut9PCaNIgbUP--g8M-220">
          <mxGeometry width="50" height="50" relative="1" as="geometry">
            <mxPoint x="225.7199999999998" y="839.9960000000001" as="sourcePoint" />
            <mxPoint x="447" y="840.19" as="targetPoint" />
            <Array as="points">
              <mxPoint x="340" y="840.19" />
            </Array>
          </mxGeometry>
        </mxCell>
        <mxCell id="ZU8Cx3COqx6KzPjUD9Aj-10" value="1..*" style="edgeLabel;html=1;align=center;verticalAlign=middle;resizable=0;points=[];" vertex="1" connectable="0" parent="ZU8Cx3COqx6KzPjUD9Aj-1">
          <mxGeometry x="-0.8757" y="-2" relative="1" as="geometry">
            <mxPoint y="-14" as="offset" />
          </mxGeometry>
        </mxCell>
        <mxCell id="ZU8Cx3COqx6KzPjUD9Aj-11" value="1..1" style="edgeLabel;html=1;align=center;verticalAlign=middle;resizable=0;points=[];" vertex="1" connectable="0" parent="ZU8Cx3COqx6KzPjUD9Aj-1">
          <mxGeometry x="0.8406" relative="1" as="geometry">
            <mxPoint x="5" y="-12" as="offset" />
          </mxGeometry>
        </mxCell>
        <mxCell id="ZU8Cx3COqx6KzPjUD9Aj-2" value="" style="rhombus;whiteSpace=wrap;html=1;rotation=-90;fillColor=#0F0F0F;" vertex="1" parent="1">
          <mxGeometry x="686" y="794" width="10" height="20" as="geometry" />
        </mxCell>
        <mxCell id="ZU8Cx3COqx6KzPjUD9Aj-6" value="" style="rhombus;whiteSpace=wrap;html=1;rotation=-90;fillColor=#0F0F0F;" vertex="1" parent="1">
          <mxGeometry x="657" y="420" width="10" height="20" as="geometry" />
        </mxCell>
        <mxCell id="ZU8Cx3COqx6KzPjUD9Aj-7" value="" style="rhombus;whiteSpace=wrap;html=1;rotation=-90;fillColor=#0F0F0F;" vertex="1" parent="1">
          <mxGeometry x="1374" y="545" width="10" height="20" as="geometry" />
        </mxCell>
        <mxCell id="ZU8Cx3COqx6KzPjUD9Aj-8" value="" style="endArrow=none;html=1;rounded=0;entryX=0.52;entryY=1.045;entryDx=0;entryDy=0;entryPerimeter=0;exitX=0.5;exitY=0;exitDx=0;exitDy=0;" edge="1" parent="1" source="TpXut9PCaNIgbUP--g8M-136" target="TpXut9PCaNIgbUP--g8M-205">
          <mxGeometry width="50" height="50" relative="1" as="geometry">
            <mxPoint x="760" y="650" as="sourcePoint" />
            <mxPoint x="810" y="600" as="targetPoint" />
          </mxGeometry>
        </mxCell>
        <mxCell id="ZU8Cx3COqx6KzPjUD9Aj-18" value="1..*" style="edgeLabel;html=1;align=center;verticalAlign=middle;resizable=0;points=[];" vertex="1" connectable="0" parent="ZU8Cx3COqx6KzPjUD9Aj-8">
          <mxGeometry x="-0.7022" relative="1" as="geometry">
            <mxPoint x="13" as="offset" />
          </mxGeometry>
        </mxCell>
        <mxCell id="ZU8Cx3COqx6KzPjUD9Aj-19" value="1..1" style="edgeLabel;html=1;align=center;verticalAlign=middle;resizable=0;points=[];" vertex="1" connectable="0" parent="ZU8Cx3COqx6KzPjUD9Aj-8">
          <mxGeometry x="0.7502" y="-1" relative="1" as="geometry">
            <mxPoint x="11" y="-1" as="offset" />
          </mxGeometry>
        </mxCell>
        <mxCell id="ZU8Cx3COqx6KzPjUD9Aj-9" value="" style="endArrow=none;html=1;rounded=0;exitX=1;exitY=0.5;exitDx=0;exitDy=0;" edge="1" parent="1">
          <mxGeometry width="50" height="50" relative="1" as="geometry">
            <mxPoint x="646.5" y="202" as="sourcePoint" />
            <mxPoint x="1140" y="471" as="targetPoint" />
            <Array as="points">
              <mxPoint x="1140" y="201" />
            </Array>
          </mxGeometry>
        </mxCell>
        <mxCell id="ZU8Cx3COqx6KzPjUD9Aj-16" value="1..*" style="edgeLabel;html=1;align=center;verticalAlign=middle;resizable=0;points=[];" vertex="1" connectable="0" parent="ZU8Cx3COqx6KzPjUD9Aj-9">
          <mxGeometry x="-0.9446" y="-2" relative="1" as="geometry">
            <mxPoint x="-8" y="-13" as="offset" />
          </mxGeometry>
        </mxCell>
        <mxCell id="ZU8Cx3COqx6KzPjUD9Aj-17" value="1..1" style="edgeLabel;html=1;align=center;verticalAlign=middle;resizable=0;points=[];" vertex="1" connectable="0" parent="ZU8Cx3COqx6KzPjUD9Aj-9">
          <mxGeometry x="0.9467" y="3" relative="1" as="geometry">
            <mxPoint x="9" y="10" as="offset" />
          </mxGeometry>
        </mxCell>
      </root>
    </mxGraphModel>
  </diagram>
</mxfile>
